<?xml version="1.0" encoding="utf-8"?>
<!-- Generator: Adobe Illustrator 25.4.1, SVG Export Plug-In . SVG Version: 6.00 Build 0)  -->
<svg version="1.1" id="Layer_1" xmlns="http://www.w3.org/2000/svg" xmlns:xlink="http://www.w3.org/1999/xlink" x="0px" y="0px"
	 viewBox="0 0 348 104" style="enable-background:new 0 0 348 104;" xml:space="preserve">
<style type="text/css">
	.st0{fill:#002E75;}
	.st1{fill:none;stroke:#231F20;stroke-miterlimit:10;}
	.st2{fill:#303030;}
	.st3{fill:#B73B77;}
	.st4{fill:#117FB8;}
	.st5{fill:none;}
	.st6{fill:none;stroke:#117FB8;stroke-width:0;stroke-linecap:round;stroke-linejoin:round;}
	.st7{fill:#76A149;}
</style>
<g>
	<g>
		<path class="st0" d="M22.7,67.3V31.9H48v4.4H27.5v10.5h19v4.1H27.6v11.9h20.8v4.5L22.7,67.3z"/>
		<path class="st0" d="M60.4,67.3l12.1-18.2L61,31.9H67L75.4,45L84,31.9h5.7L78.2,49l12.1,18.2h-5.9l-9.1-14.4l-8.8,14.4h-6.1V67.3z
			"/>
		<path class="st0" d="M128.1,66c-1.3,0.8-2.8,1.3-4.4,1.7c-1.6,0.4-3.2,0.5-4.7,0.5c-5.3,0-9.4-1.6-12.3-4.9s-4.5-7.9-4.5-13.7
			s1.5-10.4,4.5-13.7c2.9-3.3,7.1-4.9,12.3-4.9c4.6-0.3,9.2,1.6,12.4,5c3,3.3,4.5,7.9,4.5,13.7c0,2.6-0.4,5.3-1.2,7.8
			c-0.8,2.2-2,4.4-3.4,6.2l4.2,3.6l-2.4,3L128.1,66z M124.3,63l-4-3.3l2.4-3l4.7,3.8c1.2-1.3,2.1-2.9,2.5-4.6
			c0.7-2.1,0.9-4.2,0.9-6.3c0-4.6-1.1-8-3-10.7c-4.4-4.7-11.7-5.1-16.5-0.8c-0.3,0.3-0.5,0.5-0.8,0.8c-2.1,2.5-3.2,6.1-3.2,10.7
			s1.1,8,3.2,10.7c2.1,2.5,5.3,4,8.6,3.8c0.9,0,1.8-0.1,2.6-0.3C122.7,63.6,123.5,63.4,124.3,63L124.3,63z"/>
		<path class="st0" d="M147.9,53.9v-22h4.9v22c0,3.3,0.8,5.8,2.2,7.4c4,3.2,9.6,3.2,13.6,0c1.7-2.1,2.5-4.7,2.2-7.4v-22h4.9v22
			c0,4.7-1.2,8.3-3.7,10.8c-2.4,2.5-6.1,3.7-10.8,3.7c-4.5,0-7.8-1.2-10-3.6C149,62.3,148,58.6,147.9,53.9z"/>
		<path class="st0" d="M187.6,67.3V31.9h4.7v35.5H187.6z"/>
		<path class="st0" d="M204.3,55.6h4.6c-0.1,2.4,0.8,4.6,2.5,6.2c1.8,1.6,4.2,2.4,6.6,2.2c2.2,0.1,4.6-0.5,6.5-1.7
			c1.6-1.1,2.5-2.8,2.4-4.7c0-2.6-2.9-4.7-8.8-6.2l-0.8-0.1c-4.7-1.2-7.9-2.4-9.5-3.8c-1.6-1.6-2.5-3.7-2.4-5.9
			c-0.1-2.9,1.2-5.8,3.4-7.6c2.6-2,5.9-3,9.2-2.9c3.3-0.1,6.6,0.9,9.2,3c2.2,2.1,3.6,5.1,3.4,8.3h-4.6c0-2.1-0.9-4.1-2.4-5.4
			c-1.7-1.3-3.8-2-5.9-1.8c-2-0.1-4,0.4-5.7,1.6c-1.3,0.9-2.1,2.5-2.1,4.1c0,2.6,2.9,4.7,8.7,6.2l2,0.5l0.5,0.1
			c3.8,0.9,6.3,1.8,7.6,2.9c0.9,0.8,1.7,1.8,2.1,2.9c0.5,1.2,0.8,2.5,0.8,3.8c0.1,3.2-1.2,6.2-3.7,8.2c-2.8,2.1-6.3,3.3-9.9,3
			c-4.4,0-7.6-1.1-10-3.3C205.8,62.6,204.3,59.2,204.3,55.6z"/>
		<path class="st0" d="M243.7,67.3V31.9h4.7v35.5H243.7z"/>
		<path class="st0" d="M271.7,67.3V36.2h-11.2v-4.4h27.2v4.4h-11.2v31.1H271.7z"/>
		<path class="st0" d="M299.6,67.3V31.9h25.2v4.4h-20.6v10.5h19v4.1h-18.9v11.9h21v4.5L299.6,67.3z"/>
	</g>
	<line class="st1" x1="22.7" y1="75" x2="325.3" y2="75"/>
	<g>
		<path class="st2" d="M130.3,96.9V83.5H125V81h13.6v2.5h-5.3v13.5H130.3z"/>
		<path class="st2" d="M147.9,96.9H145V81h2.9V96.9z M156.3,90.1h-8.7v-2.6h8.7V90.1z M156.1,81h2.9v15.9h-2.9V81z"/>
		<path class="st2" d="M165.1,96.9l7.2-15.9h2.9l7.2,15.9h-3.1l-6.2-14.4h1.2l-6.2,14.4H165.1z M168.4,93.2l0.8-2.4h8.6l0.8,2.4
			H168.4z"/>
		<path class="st2" d="M188.6,96.9V81h2.5l10,12.2h-1.2V81h2.9v15.9h-2.5l-10-12.2h1.2v12.2H188.6z"/>
		<path class="st2" d="M214,94.5h9v2.5h-12V81h11.7v2.5H214L214,94.5L214,94.5z M213.8,87.6h8v2.5h-8V87.6z"/>
	</g>
	<g>
		<g>
			<path class="st3" d="M153.1,22.9c0.6,0.1,1.4,0.1,1.9,0.3c-0.8,0.2-1.5,0.3-2.5,0.3c-1.8,0-3.4-0.4-4.8-1.3
				C147.8,21.9,152.5,22.6,153.1,22.9z"/>
			<path class="st3" d="M197.2,22.9l0.2,0.3h-2.8l0,0c0.6-0.1,1.3-0.1,2-0.2C196.7,22.9,197,22.9,197.2,22.9z"/>
			<path class="st3" d="M209.5,20.8c0.5-0.1,1-0.2,1.5-0.3v2.8h-10.6v-0.8c0.4-0.1,0.8-0.1,1.2-0.2c0.8-0.1,1.7-0.3,2.5-0.4
				c0.7-0.1,1.4-0.3,2.3-0.4c0.7-0.1,1.3-0.3,2.1-0.4C208.8,20.9,209.1,20.9,209.5,20.8z"/>
			<path class="st3" d="M225.2,15.7v2.1c0,1.8-0.5,3.2-1.5,4.1c-1,1-2.5,1.4-4.1,1.4c-1.8,0-3.2-0.5-4.2-1.5c-0.6-0.6-1-1.3-1.3-2.2
				c0.6-0.2,1.2-0.3,1.8-0.5c0.6-0.2,1.1-0.3,1.8-0.5c0.1,0.3,0.2,0.6,0.4,0.8c0.4,0.4,0.9,0.6,1.5,0.6c0.6,0,1.1-0.2,1.5-0.6
				c0.3-0.4,0.5-1,0.5-1.8v-0.5c0.7-0.3,1.4-0.5,2.1-0.8c0.4-0.2,0.8-0.3,1.2-0.5C224.9,15.8,225.1,15.7,225.2,15.7z"/>
			<path class="st4" d="M159.9,20c-0.7,0.9-1.7,1.7-2.7,2.3c-0.7,0.4-1.5,0.7-2.3,0.9l0,0c-0.6-0.1-1.3-0.1-2-0.2
				c-0.6-0.1-1.3-0.2-2-0.3c-0.6-0.1-1.2-0.2-1.9-0.3c-0.5-0.1-1-0.2-1.5-0.2c-1.3-0.8-2.4-1.9-3.2-3.2c-0.2-0.3-0.4-0.7-0.5-1
				c1.4,0.3,3,0.5,4.4,0.8c0.1,0,0.2,0,0.3,0c0.3,0.3,0.6,0.5,1,0.7c0.8,0.5,1.9,0.7,3,0.7c1,0,1.9-0.2,2.7-0.6
				C156.8,19.6,158.4,19.9,159.9,20z"/>
			<path class="st4" d="M178.5,20.7c-0.6,0.6-1.4,1.1-2.3,1.5c-1.4,0.7-3.2,1.1-5.1,1.1h-6.4v-3c1.4,0.1,2.8,0.1,4.2,0.2
				c1,0,2.1,0,3.1,0.1C174.5,20.5,176.6,20.4,178.5,20.7z"/>
			<path class="st4" d="M184.6,20.3c0.9,0,1.8-0.1,2.7-0.2v3.1h-3.7v-2.9v0C184,20.4,184.3,20.3,184.6,20.3z"/>
			<path class="st4" d="M195.1,19.3l2.1,3.6c-0.2,0-0.4,0.1-0.6,0.1c-0.6,0.1-1.3,0.2-2,0.2l0,0h-1.4l-2.1-3.5
				C192.2,19.6,194.9,19.3,195.1,19.3z"/>
			<path class="st4" d="M211.1,20.3v0.2c-0.5,0.1-1,0.2-1.5,0.3c-0.3,0.1-0.7,0.2-1,0.2c-0.7,0.1-1.3,0.3-2.1,0.4
				c-0.7,0.1-1.4,0.3-2.3,0.4c-0.8,0.1-1.7,0.3-2.5,0.4c-0.4,0.1-0.8,0.1-1.2,0.2v-3.8c1.2-0.2,2.5-0.4,3.7-0.6v2.2h6.9V20.3z"/>
			<path class="st4" d="M217.4,17.6c0,0.4,0.1,1,0.1,1s-1.1,0.5-1.7,0.6c-0.6,0.2-1.2,0.3-1.8,0.5c-0.2-0.6-0.3-1.3-0.3-2.1H217.4z"
				/>
			<path class="st4" d="M225.2,11.7v4c-0.1,0.1-3,1.2-3.7,1.4v-3.9c0.5-0.2,0.7-0.3,1.7-0.7C224.1,12.1,224.5,11.8,225.2,11.7z"/>
			<g>
				<path class="st5" d="M141,17.2c-1.1-0.3-2.4-0.5-3.5-0.8C138.7,16.7,139.9,17,141,17.2z"/>
				<path class="st3" d="M138.9,20.3c-0.3-0.1-0.5-0.1-0.8-0.2c-0.3,0-2.8-0.8-2.9-0.8c-0.8,0.5-1.8,0.7-2.9,0.7s-2.2-0.2-3-0.7
					c-0.9-0.4-1.5-1.1-2.1-2.1c-0.1-0.2-0.2-0.5-0.3-0.7c-0.3-0.1-0.7-0.3-1-0.4c-0.3-0.2-0.7-0.3-1-0.5c-0.3-0.2-0.7-0.3-1-0.5
					c-0.3-0.2-0.7-0.3-1-0.5c0.1,1.7,0.5,3,1.2,4.3c0.8,1.3,2,2.5,3.4,3.3c1.4,0.8,3.1,1.2,4.8,1.2c1.7,0,3.1-0.4,4.3-1
					c1-0.5,2-1.2,2.7-2.1c0,0,0,0-0.1,0c0,0,0,0,0,0C139.1,20.4,139,20.4,138.9,20.3z"/>
				<path class="st4" d="M126.9,16.6c-0.4-1.3-0.2-3.3-0.1-3.7c-1.2-0.5-2.4-1-3.5-1.7c-0.2,0.9-0.4,1.6-0.5,3.4
					C124.9,16,124.9,15.8,126.9,16.6z"/>
				<path class="st4" d="M131.3,14.6v1.2h4.2C134.2,15.4,132.8,15,131.3,14.6z"/>
				<path class="st4" d="M135.2,19.3c0.1,0,2.3,0.6,2.6,0.7c0.3,0.1,1.5,0.4,1.5,0.4s1.2-1.2,1.8-3.2c-1.1-0.3-2.4-0.6-3.5-0.8
					C137.2,17.5,135.4,19.2,135.2,19.3z"/>
				<path class="st7" d="M127.4,10.8c0.4-0.8,1.1-1.5,2-2.1c0.8-0.5,1.8-0.7,2.9-0.7c0.9,0,1.9,0.2,2.6,0.6c0.7,0.4,1.3,0.9,1.8,1.8
					h4.2c-0.6-1.8-1.7-3.2-3.2-4.2c-1.4-1-3.3-1.5-5.4-1.5c-1.8,0-3.3,0.4-4.7,1.2c-1.4,0.7-2.6,1.9-3.4,3.3
					c-0.3,0.6-0.6,1.3-0.8,2.1c1.1,0.6,2.3,1.1,3.5,1.7C126.9,12,127.1,11.4,127.4,10.8z"/>
				<path class="st7" d="M131.3,13v1.5c1.4,0.4,2.8,0.8,4.2,1.2c0.6,0.2,1.3,0.3,2,0.5c1.1,0.3,2.4,0.5,3.5,0.8
					c0.6-2.1,0.2-4.1,0.2-4.1H131.3z"/>
			</g>
			<path class="st7" d="M162,14c0,1.9-0.4,3.4-1.2,4.8c-0.2,0.4-0.5,0.7-0.7,1.1c-1.5-0.1-3.1-0.3-4.7-0.4c0.1,0,0.1-0.1,0.2-0.1
				c0.8-0.5,1.5-1.2,2-2.2c0.5-0.9,0.7-2.1,0.7-3.2c0-1.2-0.2-2.3-0.7-3.2c-0.5-0.9-1.1-1.7-2-2.2c-0.8-0.5-1.9-0.7-2.9-0.7
				c-1.1,0-2.1,0.2-3,0.7c-0.8,0.5-1.5,1.2-2,2.2c-0.5,0.9-0.7,2-0.7,3.2s0.2,2.3,0.7,3.2c0.3,0.5,0.6,1.1,1,1.4
				c-0.1,0-0.3,0.1-0.4,0.1c-1.5-0.2-2.9-0.5-4.3-0.9c-0.5-1.1-0.7-2.5-0.7-3.9c0-1.8,0.4-3.4,1.2-4.8s2-2.6,3.4-3.4
				c1.4-0.8,3-1.2,4.7-1.2c1.8,0,3.3,0.4,4.7,1.2s2.6,2,3.4,3.4C161.6,10.6,162,12.2,162,14z"/>
			<path class="st7" d="M179.6,9.2c-0.8-1.4-2-2.5-3.4-3.2c-1.4-0.7-3.2-1.1-5.1-1.1h-6.4v15.5c1.4,0.1,2.8,0.1,4.2,0.2
				c1,0,2.1,0,3.1,0.1c2.2,0,4.2,0,6.4,0c0.5-0.5,0.9-1,1.2-1.7c0.8-1.3,1.2-3,1.2-4.8C180.9,12.2,180.4,10.6,179.6,9.2z
				 M175.5,18.5c-1,1-2.6,1.5-4.4,1.5h-2.6V8h2.6c2,0,3.4,0.5,4.4,1.7c1,1,1.5,2.6,1.5,4.5C177,15.9,176.5,17.5,175.5,18.5z"/>
			<path class="st7" d="M196.3,7.6c-0.5-0.8-1.2-1.5-2.3-2.1c-1-0.5-2.2-0.7-3.6-0.7h-6.9v15.5c0.3,0,0.7,0,1,0
				c0.9,0,1.8-0.1,2.7-0.2v-4h1.8l2.1,3.7c1.1-0.1,2.3-0.2,3.5-0.3c0.2,0,0.3,0,0.5-0.1l-2.2-3.6c1.3-0.4,2.5-1,3.1-2.1
				c0.7-0.9,1-2.1,1-3.3C197.2,9.4,196.8,8.5,196.3,7.6z M192.6,12.5c-0.5,0.5-1.2,0.7-2.3,0.7h-3.1V7.9h3.1c1,0,1.8,0.2,2.3,0.7
				c0.5,0.4,0.7,1.1,0.7,2C193.3,11.4,193.1,12.1,192.6,12.5z"/>
			<path class="st7" d="M200.5,4.8h10.7v3h-7v4.6h6.2v2.9h-6.2V18c-1.2,0.2-2.5,0.4-3.7,0.6L200.5,4.8L200.5,4.8z"/>
			<path class="st7" d="M225.2,4.8v6.9c-0.7,0.3-1.3,0.6-2.1,0.9c-0.5,0.2-1.1,0.4-1.7,0.7V4.8H225.2z"/>
		</g>
	</g>
	<polygon class="st4" points="183.9,20.4 184.2,20.3 184.5,20.3 184.5,20.3 183.8,20.3 183.5,20.3 183.7,20.4 	"/>
</g>
</svg>
